<svg xmlns="http://www.w3.org/2000/svg" xmlns:xlink="http://www.w3.org/1999/xlink" width="195" zoomAndPan="magnify" viewBox="0 0 146.25 30.000001" height="40" preserveAspectRatio="xMidYMid meet" version="1.0"><defs><g/><clipPath id="id1"><path d="M 7.867188 0.0078125 L 32.542969 0.0078125 L 32.542969 29.023438 L 7.867188 29.023438 Z M 7.867188 0.0078125 " clip-rule="nonzero"/></clipPath></defs><g fill="rgb(0%, 0%, 0%)" fill-opacity="1"><g transform="translate(42.332198, 24.41614)"><g><path d="M 1.421875 -19.578125 L 8.5625 -19.578125 C 10.5625 -19.578125 12.175781 -19.0625 13.40625 -18.03125 C 14.644531 -17.007812 15.265625 -15.515625 15.265625 -13.546875 C 15.265625 -11.585938 14.640625 -10.050781 13.390625 -8.9375 C 12.140625 -7.820312 10.53125 -7.265625 8.5625 -7.265625 L 5.890625 -7.265625 L 5.890625 0 L 1.421875 0 Z M 5.890625 -10.828125 L 7.140625 -10.828125 C 8.140625 -10.828125 8.957031 -11.023438 9.59375 -11.421875 C 10.238281 -11.828125 10.5625 -12.488281 10.5625 -13.40625 C 10.5625 -14.34375 10.238281 -15.007812 9.59375 -15.40625 C 8.957031 -15.8125 8.140625 -16.015625 7.140625 -16.015625 L 5.890625 -16.015625 Z M 5.890625 -10.828125 "/></g></g></g><g fill="rgb(0%, 0%, 0%)" fill-opacity="1"><g transform="translate(56.942473, 24.41614)"><g><path d="M 1.421875 0 L 1.421875 -20.40625 L 5.625 -20.40625 L 5.625 0 Z M 1.421875 0 "/></g></g></g><g fill="rgb(0%, 0%, 0%)" fill-opacity="1"><g transform="translate(62.800569, 24.41614)"><g><path d="M 2.25 -1.5 C 1.113281 -2.75 0.546875 -4.273438 0.546875 -6.078125 C 0.546875 -7.878906 1.113281 -9.40625 2.25 -10.65625 C 3.394531 -11.90625 4.84375 -12.53125 6.59375 -12.53125 C 8.207031 -12.53125 9.535156 -12.023438 10.578125 -11.015625 L 10.578125 -12.171875 L 14.78125 -12.171875 L 14.78125 0 L 10.640625 0 L 10.640625 -1.375 L 10.578125 -1.375 C 9.535156 -0.21875 8.207031 0.359375 6.59375 0.359375 C 4.84375 0.359375 3.394531 -0.257812 2.25 -1.5 Z M 5.828125 -8.140625 C 5.285156 -7.597656 5.015625 -6.90625 5.015625 -6.0625 C 5.015625 -5.226562 5.273438 -4.546875 5.796875 -4.015625 C 6.316406 -3.492188 7.003906 -3.234375 7.859375 -3.234375 C 8.679688 -3.234375 9.359375 -3.5 9.890625 -4.03125 C 10.421875 -4.570312 10.6875 -5.253906 10.6875 -6.078125 C 10.6875 -6.910156 10.410156 -7.597656 9.859375 -8.140625 C 9.316406 -8.679688 8.648438 -8.953125 7.859375 -8.953125 C 7.046875 -8.953125 6.367188 -8.679688 5.828125 -8.140625 Z M 5.828125 -8.140625 "/></g></g></g><g fill="rgb(0%, 0%, 0%)" fill-opacity="1"><g transform="translate(77.81407, 24.41614)"><g><path d="M 1.421875 0 L 1.421875 -12.171875 L 5.625 -12.171875 L 5.625 -10.890625 L 5.671875 -10.890625 C 6.765625 -11.984375 7.925781 -12.53125 9.15625 -12.53125 C 9.757812 -12.53125 10.359375 -12.453125 10.953125 -12.296875 C 11.546875 -12.140625 12.113281 -11.894531 12.65625 -11.5625 C 13.207031 -11.226562 13.648438 -10.753906 13.984375 -10.140625 C 14.328125 -9.535156 14.5 -8.828125 14.5 -8.015625 L 14.5 0 L 10.296875 0 L 10.296875 -6.890625 C 10.296875 -7.515625 10.09375 -8.0625 9.6875 -8.53125 C 9.289062 -9.007812 8.765625 -9.25 8.109375 -9.25 C 7.484375 -9.25 6.910156 -9.003906 6.390625 -8.515625 C 5.878906 -8.023438 5.625 -7.484375 5.625 -6.890625 L 5.625 0 Z M 1.421875 0 "/></g></g></g><g fill="rgb(0%, 0%, 0%)" fill-opacity="1"><g transform="translate(92.305759, 24.41614)"><g><path d="M 2.140625 -12.171875 L 2.140625 -16.703125 L 6.34375 -16.703125 L 6.34375 -12.171875 L 8.90625 -12.171875 L 8.90625 -8.96875 L 6.34375 -8.96875 L 6.34375 -5.109375 C 6.34375 -3.984375 6.65625 -3.421875 7.28125 -3.421875 C 7.445312 -3.421875 7.613281 -3.453125 7.78125 -3.515625 C 7.957031 -3.578125 8.09375 -3.640625 8.1875 -3.703125 L 8.328125 -3.796875 L 9.375 -0.40625 C 8.46875 0.101562 7.441406 0.359375 6.296875 0.359375 C 5.503906 0.359375 4.820312 0.222656 4.25 -0.046875 C 3.675781 -0.328125 3.242188 -0.703125 2.953125 -1.171875 C 2.660156 -1.640625 2.453125 -2.128906 2.328125 -2.640625 C 2.203125 -3.160156 2.140625 -3.710938 2.140625 -4.296875 L 2.140625 -8.96875 L 0.375 -8.96875 L 0.375 -12.171875 Z M 2.140625 -12.171875 "/></g></g></g><g fill="rgb(0%, 0%, 0%)" fill-opacity="1"><g transform="translate(100.488284, 24.41614)"><g><path d="M 13.734375 -5.5 L 4.90625 -5.5 C 4.90625 -4.644531 5.179688 -4.007812 5.734375 -3.59375 C 6.296875 -3.1875 6.898438 -2.984375 7.546875 -2.984375 C 8.222656 -2.984375 8.757812 -3.070312 9.15625 -3.25 C 9.550781 -3.4375 10.003906 -3.800781 10.515625 -4.34375 L 13.546875 -2.828125 C 12.285156 -0.703125 10.179688 0.359375 7.234375 0.359375 C 5.398438 0.359375 3.828125 -0.269531 2.515625 -1.53125 C 1.203125 -2.789062 0.546875 -4.304688 0.546875 -6.078125 C 0.546875 -7.847656 1.203125 -9.363281 2.515625 -10.625 C 3.828125 -11.894531 5.398438 -12.53125 7.234375 -12.53125 C 9.171875 -12.53125 10.742188 -11.972656 11.953125 -10.859375 C 13.160156 -9.742188 13.765625 -8.148438 13.765625 -6.078125 C 13.765625 -5.796875 13.753906 -5.601562 13.734375 -5.5 Z M 5.03125 -7.828125 L 9.65625 -7.828125 C 9.5625 -8.460938 9.3125 -8.945312 8.90625 -9.28125 C 8.507812 -9.625 7.992188 -9.796875 7.359375 -9.796875 C 6.660156 -9.796875 6.101562 -9.613281 5.6875 -9.25 C 5.28125 -8.882812 5.0625 -8.410156 5.03125 -7.828125 Z M 5.03125 -7.828125 "/></g></g></g><g fill="rgb(0%, 0%, 0%)" fill-opacity="1"><g transform="translate(113.604294, 24.41614)"><g><path d="M 2.25 -1.5 C 1.113281 -2.75 0.546875 -4.273438 0.546875 -6.078125 C 0.546875 -7.878906 1.113281 -9.40625 2.25 -10.65625 C 3.394531 -11.90625 4.84375 -12.53125 6.59375 -12.53125 C 8.207031 -12.53125 9.535156 -12.023438 10.578125 -11.015625 L 10.578125 -20.40625 L 14.78125 -20.40625 L 14.78125 0 L 10.640625 0 L 10.640625 -1.375 L 10.578125 -1.375 C 9.535156 -0.21875 8.207031 0.359375 6.59375 0.359375 C 4.84375 0.359375 3.394531 -0.257812 2.25 -1.5 Z M 5.828125 -8.140625 C 5.285156 -7.597656 5.015625 -6.90625 5.015625 -6.0625 C 5.015625 -5.226562 5.273438 -4.546875 5.796875 -4.015625 C 6.316406 -3.492188 7.003906 -3.234375 7.859375 -3.234375 C 8.679688 -3.234375 9.359375 -3.5 9.890625 -4.03125 C 10.421875 -4.570312 10.6875 -5.253906 10.6875 -6.078125 C 10.6875 -6.910156 10.410156 -7.597656 9.859375 -8.140625 C 9.316406 -8.679688 8.648438 -8.953125 7.859375 -8.953125 C 7.046875 -8.953125 6.367188 -8.679688 5.828125 -8.140625 Z M 5.828125 -8.140625 "/></g></g></g><g fill="rgb(0%, 0%, 0%)" fill-opacity="1"><g transform="translate(128.617794, 24.41614)"><g><path d="M 4.125 -5.078125 C 4.882812 -5.078125 5.53125 -4.8125 6.0625 -4.28125 C 6.59375 -3.75 6.859375 -3.101562 6.859375 -2.34375 C 6.859375 -1.601562 6.59375 -0.96875 6.0625 -0.4375 C 5.53125 0.09375 4.882812 0.359375 4.125 0.359375 C 3.382812 0.359375 2.75 0.09375 2.21875 -0.4375 C 1.6875 -0.96875 1.421875 -1.601562 1.421875 -2.34375 C 1.421875 -3.101562 1.6875 -3.75 2.21875 -4.28125 C 2.75 -4.8125 3.382812 -5.078125 4.125 -5.078125 Z M 4.125 -5.078125 "/></g></g></g><g clip-path="url(#id1)"><path fill="rgb(22.349548%, 70.979309%, 29.019165%)" d="M 27.507812 0.0078125 C 27.324219 1.882812 25.890625 3.398438 24.316406 4.417969 C 22.457031 5.625 20.417969 6.546875 18.335938 7.304688 C 8.695312 10.808594 10.855469 18.980469 10.601562 21.738281 C 13.121094 20.230469 16.222656 19.726562 18.941406 18.625 C 24.035156 16.554688 26.828125 12.480469 27.042969 7.796875 C 27.261719 10.257812 26.90625 15.734375 21.835938 18.796875 C 19.660156 20.109375 17.183594 20.820312 14.84375 21.804688 C 12.5 22.792969 10.179688 24.179688 8.925781 26.402344 C 8.460938 27.222656 8.164062 28.125 7.867188 29.023438 C 9.226562 26.96875 11.589844 25.773438 13.980469 25.210938 C 16.371094 24.644531 21.671875 24.8125 27.5 21.503906 C 30.289062 19.925781 32.296875 16.449219 32.5 13.238281 C 32.980469 5.726562 29.066406 1.34375 27.507812 0.0078125 " fill-opacity="1" fill-rule="nonzero"/></g></svg>